<svg width="158" height="43" viewBox="0 0 158 43" fill="none" xmlns="http://www.w3.org/2000/svg">
<path d="M18.1392 24.39L20.6812 33H25.7242L15.7202 2.824H10.2262L0.222168 33H5.06017L7.64317 24.39H18.1392ZM16.9912 20.659H8.75017L9.98017 16.6C10.4722 14.96 10.9505 13.3063 11.4152 11.639C11.8798 9.97167 12.3308 8.277 12.7682 6.555H12.9322C13.3968 8.277 13.8615 9.97167 14.3262 11.639C14.7908 13.3063 15.2828 14.96 15.8022 16.6L16.9912 20.659Z" fill="black"/>
<path d="M26.6348 10.45L32.7438 33H38.1968L40.9438 21.889C41.2445 20.823 41.5042 19.757 41.7228 18.691C41.9415 17.625 42.1602 16.5043 42.3788 15.329H42.5838C42.8298 16.5043 43.0622 17.625 43.2808 18.691C43.4995 19.7297 43.7455 20.782 44.0188 21.848L46.8888 33H52.5468L58.3688 10.45H53.9408L51.0298 22.668C50.7838 23.7613 50.5515 24.841 50.3328 25.907C50.1415 26.9457 49.9365 27.998 49.7178 29.064H49.5538C49.2805 27.998 49.0208 26.9457 48.7748 25.907C48.5562 24.841 48.3101 23.7613 48.0368 22.668L44.7978 10.45H40.4108L37.2538 22.668C36.9805 23.734 36.7208 24.8 36.4748 25.866C36.2561 26.932 36.0238 27.998 35.7778 29.064H35.6138C35.3951 27.998 35.1902 26.9457 34.9988 25.907C34.8075 24.841 34.6025 23.7613 34.3838 22.668L31.3908 10.45H26.6348Z" fill="black"/>
<path d="M71.8277 33.533C73.2217 33.533 74.561 33.2733 75.8457 32.754C77.1304 32.2073 78.251 31.442 79.2077 30.458C80.1917 29.4467 80.9707 28.2167 81.5447 26.768C82.146 25.292 82.4467 23.6247 82.4467 21.766C82.4467 19.88 82.146 18.199 81.5447 16.723C80.9707 15.247 80.1917 14.0033 79.2077 12.992C78.251 11.9807 77.1304 11.2153 75.8457 10.696C74.561 10.1493 73.2217 9.876 71.8277 9.876C70.4337 9.876 69.0944 10.1493 67.8097 10.696C66.525 11.2153 65.3907 11.9807 64.4067 12.992C63.45 14.0033 62.671 15.247 62.0697 16.723C61.4957 18.199 61.2087 19.88 61.2087 21.766C61.2087 23.6247 61.4957 25.292 62.0697 26.768C62.671 28.2167 63.45 29.4467 64.4067 30.458C65.3907 31.442 66.525 32.2073 67.8097 32.754C69.0944 33.2733 70.4337 33.533 71.8277 33.533ZM71.8277 29.679C70.953 29.679 70.1604 29.4877 69.4497 29.105C68.739 28.7223 68.1377 28.1893 67.6457 27.506C67.1537 26.8227 66.771 25.989 66.4977 25.005C66.2244 24.021 66.0877 22.9413 66.0877 21.766C66.0877 19.3607 66.5934 17.4337 67.6047 15.985C68.616 14.509 70.0237 13.771 71.8277 13.771C73.6317 13.771 75.0394 14.509 76.0507 15.985C77.0894 17.4337 77.6087 19.3607 77.6087 21.766C77.6087 22.9413 77.472 24.021 77.1987 25.005C76.9254 25.989 76.5427 26.8227 76.0507 27.506C75.5587 28.1893 74.9574 28.7223 74.2467 29.105C73.536 29.4877 72.7297 29.679 71.8277 29.679Z" fill="black"/>
<path d="M97.0123 33.533C98.4063 33.533 99.7456 33.2733 101.03 32.754C102.315 32.2073 103.436 31.442 104.392 30.458C105.376 29.4467 106.155 28.2167 106.729 26.768C107.331 25.292 107.631 23.6247 107.631 21.766C107.631 19.88 107.331 18.199 106.729 16.723C106.155 15.247 105.376 14.0033 104.392 12.992C103.436 11.9807 102.315 11.2153 101.03 10.696C99.7456 10.1493 98.4063 9.876 97.0123 9.876C95.6183 9.876 94.2789 10.1493 92.9943 10.696C91.7096 11.2153 90.5753 11.9807 89.5913 12.992C88.6346 14.0033 87.8556 15.247 87.2543 16.723C86.6803 18.199 86.3933 19.88 86.3933 21.766C86.3933 23.6247 86.6803 25.292 87.2543 26.768C87.8556 28.2167 88.6346 29.4467 89.5913 30.458C90.5753 31.442 91.7096 32.2073 92.9943 32.754C94.2789 33.2733 95.6183 33.533 97.0123 33.533ZM97.0123 29.679C96.1376 29.679 95.3449 29.4877 94.6343 29.105C93.9236 28.7223 93.3223 28.1893 92.8303 27.506C92.3383 26.8227 91.9556 25.989 91.6823 25.005C91.4089 24.021 91.2723 22.9413 91.2723 21.766C91.2723 19.3607 91.7779 17.4337 92.7893 15.985C93.8006 14.509 95.2083 13.771 97.0123 13.771C98.8163 13.771 100.224 14.509 101.235 15.985C102.274 17.4337 102.793 19.3607 102.793 21.766C102.793 22.9413 102.657 24.021 102.383 25.005C102.11 25.989 101.727 26.8227 101.235 27.506C100.743 28.1893 100.142 28.7223 99.4313 29.105C98.7206 29.4877 97.9143 29.679 97.0123 29.679Z" fill="black"/>
<path d="M120.967 33.533C122.279 33.533 123.482 33.246 124.575 32.672C125.696 32.0707 126.68 31.3327 127.527 30.458H127.65L128.06 33H131.914V0.322998H127.199V8.687L127.404 12.418C126.475 11.6253 125.559 11.0103 124.657 10.573C123.755 10.1083 122.648 9.876 121.336 9.876C120.079 9.876 118.862 10.1493 117.687 10.696C116.539 11.2427 115.514 12.0353 114.612 13.074C113.71 14.0853 112.986 15.329 112.439 16.805C111.92 18.2537 111.66 19.9073 111.66 21.766C111.66 25.5927 112.48 28.5173 114.12 30.54C115.787 32.5353 118.07 33.533 120.967 33.533ZM122.074 29.638C120.27 29.638 118.89 28.9547 117.933 27.588C117.004 26.2213 116.539 24.2533 116.539 21.684C116.539 20.454 116.689 19.3607 116.99 18.404C117.291 17.42 117.687 16.6 118.179 15.944C118.698 15.2607 119.3 14.7413 119.983 14.386C120.694 14.0033 121.445 13.812 122.238 13.812C123.085 13.812 123.905 13.9623 124.698 14.263C125.518 14.5637 126.352 15.0967 127.199 15.862V26.891C125.614 28.7223 123.905 29.638 122.074 29.638Z" fill="black"/>
<path d="M146.136 42.43L157.206 10.45H152.614L149.006 22.053L147.243 28.408H147.038C146.683 27.3693 146.327 26.3033 145.972 25.21C145.644 24.1167 145.316 23.0643 144.988 22.053L140.806 10.45H135.968L144.906 32.836L141.667 42.43H146.136Z" fill="black"/>
</svg>
