<svg width="271" height="43" viewBox="0 0 271 43" fill="none" xmlns="http://www.w3.org/2000/svg">
<path d="M18.1392 24.39L20.6812 33H25.7242L15.7202 2.824H10.2262L0.222168 33H5.06017L7.64317 24.39H18.1392ZM16.9912 20.659H8.75017L9.98017 16.6C10.4722 14.96 10.9505 13.3063 11.4152 11.639C11.8798 9.97167 12.3308 8.277 12.7682 6.555H12.9322C13.3968 8.277 13.8615 9.97167 14.3262 11.639C14.7908 13.3063 15.2828 14.96 15.8022 16.6L16.9912 20.659Z" fill="black"/>
<path d="M26.6348 10.45L32.7438 33H38.1968L40.9438 21.889C41.2445 20.823 41.5042 19.757 41.7228 18.691C41.9415 17.625 42.1602 16.5043 42.3788 15.329H42.5838C42.8298 16.5043 43.0622 17.625 43.2808 18.691C43.4995 19.7297 43.7455 20.782 44.0188 21.848L46.8888 33H52.5468L58.3688 10.45H53.9408L51.0298 22.668C50.7838 23.7613 50.5515 24.841 50.3328 25.907C50.1415 26.9457 49.9365 27.998 49.7178 29.064H49.5538C49.2805 27.998 49.0208 26.9457 48.7748 25.907C48.5562 24.841 48.3101 23.7613 48.0368 22.668L44.7978 10.45H40.4108L37.2538 22.668C36.9805 23.734 36.7208 24.8 36.4748 25.866C36.2561 26.932 36.0238 27.998 35.7778 29.064H35.6138C35.3951 27.998 35.1902 26.9457 34.9988 25.907C34.8075 24.841 34.6025 23.7613 34.3838 22.668L31.3908 10.45H26.6348Z" fill="black"/>
<path d="M71.8277 33.533C73.2217 33.533 74.561 33.2733 75.8457 32.754C77.1304 32.2073 78.251 31.442 79.2077 30.458C80.1917 29.4467 80.9707 28.2167 81.5447 26.768C82.146 25.292 82.4467 23.6247 82.4467 21.766C82.4467 19.88 82.146 18.199 81.5447 16.723C80.9707 15.247 80.1917 14.0033 79.2077 12.992C78.251 11.9807 77.1304 11.2153 75.8457 10.696C74.561 10.1493 73.2217 9.876 71.8277 9.876C70.4337 9.876 69.0944 10.1493 67.8097 10.696C66.525 11.2153 65.3907 11.9807 64.4067 12.992C63.45 14.0033 62.671 15.247 62.0697 16.723C61.4957 18.199 61.2087 19.88 61.2087 21.766C61.2087 23.6247 61.4957 25.292 62.0697 26.768C62.671 28.2167 63.45 29.4467 64.4067 30.458C65.3907 31.442 66.525 32.2073 67.8097 32.754C69.0944 33.2733 70.4337 33.533 71.8277 33.533ZM71.8277 29.679C70.953 29.679 70.1604 29.4877 69.4497 29.105C68.739 28.7223 68.1377 28.1893 67.6457 27.506C67.1537 26.8227 66.771 25.989 66.4977 25.005C66.2244 24.021 66.0877 22.9413 66.0877 21.766C66.0877 19.3607 66.5934 17.4337 67.6047 15.985C68.616 14.509 70.0237 13.771 71.8277 13.771C73.6317 13.771 75.0394 14.509 76.0507 15.985C77.0894 17.4337 77.6087 19.3607 77.6087 21.766C77.6087 22.9413 77.472 24.021 77.1987 25.005C76.9254 25.989 76.5427 26.8227 76.0507 27.506C75.5587 28.1893 74.9574 28.7223 74.2467 29.105C73.536 29.4877 72.7297 29.679 71.8277 29.679Z" fill="black"/>
<path d="M97.0123 33.533C98.4063 33.533 99.7456 33.2733 101.03 32.754C102.315 32.2073 103.436 31.442 104.392 30.458C105.376 29.4467 106.155 28.2167 106.729 26.768C107.331 25.292 107.631 23.6247 107.631 21.766C107.631 19.88 107.331 18.199 106.729 16.723C106.155 15.247 105.376 14.0033 104.392 12.992C103.436 11.9807 102.315 11.2153 101.03 10.696C99.7456 10.1493 98.4063 9.876 97.0123 9.876C95.6183 9.876 94.2789 10.1493 92.9943 10.696C91.7096 11.2153 90.5753 11.9807 89.5913 12.992C88.6346 14.0033 87.8556 15.247 87.2543 16.723C86.6803 18.199 86.3933 19.88 86.3933 21.766C86.3933 23.6247 86.6803 25.292 87.2543 26.768C87.8556 28.2167 88.6346 29.4467 89.5913 30.458C90.5753 31.442 91.7096 32.2073 92.9943 32.754C94.2789 33.2733 95.6183 33.533 97.0123 33.533ZM97.0123 29.679C96.1376 29.679 95.3449 29.4877 94.6343 29.105C93.9236 28.7223 93.3223 28.1893 92.8303 27.506C92.3383 26.8227 91.9556 25.989 91.6823 25.005C91.4089 24.021 91.2723 22.9413 91.2723 21.766C91.2723 19.3607 91.7779 17.4337 92.7893 15.985C93.8006 14.509 95.2083 13.771 97.0123 13.771C98.8163 13.771 100.224 14.509 101.235 15.985C102.274 17.4337 102.793 19.3607 102.793 21.766C102.793 22.9413 102.657 24.021 102.383 25.005C102.11 25.989 101.727 26.8227 101.235 27.506C100.743 28.1893 100.142 28.7223 99.4313 29.105C98.7206 29.4877 97.9143 29.679 97.0123 29.679Z" fill="black"/>
<path d="M120.967 33.533C122.279 33.533 123.482 33.246 124.575 32.672C125.696 32.0707 126.68 31.3327 127.527 30.458H127.65L128.06 33H131.914V0.322998H127.199V8.687L127.404 12.418C126.475 11.6253 125.559 11.0103 124.657 10.573C123.755 10.1083 122.648 9.876 121.336 9.876C120.079 9.876 118.862 10.1493 117.687 10.696C116.539 11.2427 115.514 12.0353 114.612 13.074C113.71 14.0853 112.986 15.329 112.439 16.805C111.92 18.2537 111.66 19.9073 111.66 21.766C111.66 25.5927 112.48 28.5173 114.12 30.54C115.787 32.5353 118.07 33.533 120.967 33.533ZM122.074 29.638C120.27 29.638 118.89 28.9547 117.933 27.588C117.004 26.2213 116.539 24.2533 116.539 21.684C116.539 20.454 116.689 19.3607 116.99 18.404C117.291 17.42 117.687 16.6 118.179 15.944C118.698 15.2607 119.3 14.7413 119.983 14.386C120.694 14.0033 121.445 13.812 122.238 13.812C123.085 13.812 123.905 13.9623 124.698 14.263C125.518 14.5637 126.352 15.0967 127.199 15.862V26.891C125.614 28.7223 123.905 29.638 122.074 29.638Z" fill="black"/>
<path d="M146.136 42.43L157.206 10.45H152.614L149.006 22.053L147.243 28.408H147.038C146.683 27.3693 146.327 26.3033 145.972 25.21C145.644 24.1167 145.316 23.0643 144.988 22.053L140.806 10.45H135.968L144.906 32.836L141.667 42.43H146.136Z" fill="black"/>
<path d="M178.033 33.39C178.533 33.39 179.043 33.33 179.563 33.21C180.083 33.09 180.573 32.95 181.033 32.79L180.493 30.75C180.213 30.85 179.903 30.95 179.563 31.05C179.223 31.13 178.913 31.17 178.633 31.17C177.673 31.17 177.013 30.9 176.653 30.36C176.293 29.82 176.113 29.04 176.113 28.02V18.93H180.523V16.71H176.113V12.15H173.833L173.503 16.71L170.953 16.86V18.93H173.383V27.96C173.383 28.78 173.463 29.53 173.623 30.21C173.783 30.87 174.043 31.44 174.403 31.92C174.763 32.38 175.243 32.74 175.843 33C176.443 33.26 177.173 33.39 178.033 33.39Z" fill="#9B5DE5"/>
<path d="M189.882 33.39C191.022 33.39 192.022 33.23 192.882 32.91C193.762 32.57 194.562 32.17 195.282 31.71L194.292 29.91C193.692 30.31 193.062 30.63 192.402 30.87C191.742 31.09 191.012 31.2 190.212 31.2C188.652 31.2 187.382 30.69 186.402 29.67C185.442 28.65 184.912 27.26 184.812 25.5H195.792C195.832 25.3 195.862 25.07 195.882 24.81C195.902 24.53 195.912 24.24 195.912 23.94C195.912 22.78 195.762 21.73 195.462 20.79C195.182 19.85 194.762 19.05 194.202 18.39C193.662 17.71 192.992 17.19 192.192 16.83C191.392 16.47 190.472 16.29 189.432 16.29C188.492 16.29 187.572 16.49 186.672 16.89C185.792 17.29 185.012 17.86 184.332 18.6C183.652 19.34 183.102 20.24 182.682 21.3C182.282 22.36 182.082 23.55 182.082 24.87C182.082 26.21 182.282 27.41 182.682 28.47C183.102 29.53 183.662 30.43 184.362 31.17C185.062 31.89 185.882 32.44 186.822 32.82C187.782 33.2 188.802 33.39 189.882 33.39ZM193.512 23.55H184.782C184.862 22.75 185.042 22.04 185.322 21.42C185.602 20.78 185.952 20.25 186.372 19.83C186.792 19.39 187.262 19.06 187.782 18.84C188.322 18.6 188.882 18.48 189.462 18.48C190.742 18.48 191.732 18.9 192.432 19.74C193.152 20.58 193.512 21.85 193.512 23.55Z" fill="#9B5DE5"/>
<path d="M202.275 33.39C203.295 33.39 204.255 33.2 205.155 32.82C206.075 32.42 206.925 31.9 207.705 31.26H207.795L208.035 33H210.285V22.98C210.285 21.98 210.175 21.07 209.955 20.25C209.735 19.43 209.395 18.73 208.935 18.15C208.495 17.55 207.915 17.09 207.195 16.77C206.495 16.45 205.645 16.29 204.645 16.29C203.325 16.29 202.085 16.49 200.925 16.89C199.785 17.29 198.835 17.73 198.075 18.21L199.155 20.16C199.795 19.72 200.555 19.35 201.435 19.05C202.315 18.73 203.235 18.57 204.195 18.57C204.855 18.57 205.405 18.69 205.845 18.93C206.285 19.15 206.625 19.45 206.865 19.83C207.125 20.21 207.305 20.65 207.405 21.15C207.505 21.65 207.555 22.16 207.555 22.68C204.335 22.72 201.855 23.2 200.115 24.12C198.395 25.02 197.535 26.52 197.535 28.62C197.535 29.36 197.655 30.03 197.895 30.63C198.135 31.21 198.465 31.71 198.885 32.13C199.305 32.53 199.805 32.84 200.385 33.06C200.965 33.28 201.595 33.39 202.275 33.39ZM203.055 31.2C202.215 31.2 201.525 30.98 200.985 30.54C200.465 30.1 200.205 29.4 200.205 28.44C200.205 27.8 200.315 27.26 200.535 26.82C200.755 26.36 201.145 25.98 201.705 25.68C202.265 25.36 203.015 25.11 203.955 24.93C204.915 24.73 206.115 24.58 207.555 24.48V29.31C206.755 30.01 206.005 30.5 205.305 30.78C204.605 31.06 203.855 31.2 203.055 31.2Z" fill="#9B5DE5"/>
<path d="M221.008 33.39C221.988 33.39 222.928 33.21 223.828 32.85C224.728 32.49 225.538 31.98 226.258 31.32L225.088 29.49C224.568 29.95 223.988 30.34 223.348 30.66C222.708 30.96 222.008 31.11 221.248 31.11C220.508 31.11 219.828 30.96 219.208 30.66C218.588 30.36 218.048 29.94 217.588 29.4C217.148 28.86 216.808 28.21 216.568 27.45C216.328 26.67 216.208 25.81 216.208 24.87C216.208 23.93 216.338 23.08 216.598 22.32C216.858 21.54 217.208 20.87 217.648 20.31C218.108 19.75 218.648 19.32 219.268 19.02C219.888 18.72 220.568 18.57 221.308 18.57C221.968 18.57 222.558 18.71 223.078 18.99C223.598 19.25 224.098 19.6 224.578 20.04L225.988 18.21C225.408 17.69 224.738 17.24 223.978 16.86C223.218 16.48 222.298 16.29 221.218 16.29C220.178 16.29 219.178 16.48 218.218 16.86C217.278 17.24 216.448 17.8 215.728 18.54C215.008 19.28 214.428 20.18 213.988 21.24C213.568 22.3 213.358 23.51 213.358 24.87C213.358 26.21 213.548 27.41 213.928 28.47C214.328 29.53 214.868 30.43 215.548 31.17C216.248 31.89 217.058 32.44 217.978 32.82C218.918 33.2 219.928 33.39 221.008 33.39Z" fill="#9B5DE5"/>
<path d="M231.682 9.12H228.952V33H231.682V21.18C232.502 20.36 233.242 19.74 233.902 19.32C234.562 18.9 235.312 18.69 236.152 18.69C237.232 18.69 238.012 19.03 238.492 19.71C238.992 20.37 239.242 21.48 239.242 23.04V33H241.972V22.68C241.972 20.56 241.582 18.97 240.802 17.91C240.022 16.83 238.752 16.29 236.992 16.29C235.872 16.29 234.882 16.56 234.022 17.1C233.162 17.62 232.352 18.26 231.592 19.02L231.682 15.66V9.12Z" fill="#9B5DE5"/>
<path d="M252.844 33.39C253.984 33.39 254.984 33.23 255.844 32.91C256.724 32.57 257.524 32.17 258.244 31.71L257.254 29.91C256.654 30.31 256.024 30.63 255.364 30.87C254.704 31.09 253.974 31.2 253.174 31.2C251.614 31.2 250.344 30.69 249.364 29.67C248.404 28.65 247.874 27.26 247.774 25.5H258.754C258.794 25.3 258.824 25.07 258.844 24.81C258.864 24.53 258.874 24.24 258.874 23.94C258.874 22.78 258.724 21.73 258.424 20.79C258.144 19.85 257.724 19.05 257.164 18.39C256.624 17.71 255.954 17.19 255.154 16.83C254.354 16.47 253.434 16.29 252.394 16.29C251.454 16.29 250.534 16.49 249.634 16.89C248.754 17.29 247.974 17.86 247.294 18.6C246.614 19.34 246.064 20.24 245.644 21.3C245.244 22.36 245.044 23.55 245.044 24.87C245.044 26.21 245.244 27.41 245.644 28.47C246.064 29.53 246.624 30.43 247.324 31.17C248.024 31.89 248.844 32.44 249.784 32.82C250.744 33.2 251.764 33.39 252.844 33.39ZM256.474 23.55H247.744C247.824 22.75 248.004 22.04 248.284 21.42C248.564 20.78 248.914 20.25 249.334 19.83C249.754 19.39 250.224 19.06 250.744 18.84C251.284 18.6 251.844 18.48 252.424 18.48C253.704 18.48 254.694 18.9 255.394 19.74C256.114 20.58 256.474 21.85 256.474 23.55Z" fill="#9B5DE5"/>
<path d="M264.236 16.71H261.986V33H264.716V22.53C264.976 21.83 265.276 21.24 265.616 20.76C265.956 20.28 266.306 19.9 266.666 19.62C267.026 19.32 267.396 19.11 267.776 18.99C268.156 18.85 268.506 18.78 268.826 18.78C269.166 18.78 269.446 18.8 269.666 18.84C269.886 18.88 270.136 18.95 270.416 19.05L270.926 16.65C270.666 16.51 270.396 16.42 270.116 16.38C269.856 16.32 269.546 16.29 269.186 16.29C268.266 16.29 267.406 16.6 266.606 17.22C265.826 17.82 265.146 18.64 264.566 19.68H264.476L264.236 16.71Z" fill="#9B5DE5"/>
</svg>
